<?xml version="1.0" standalone="no"?>
<!DOCTYPE svg PUBLIC "-//W3C//DTD SVG 20010904//EN"
 "http://www.w3.org/TR/2001/REC-SVG-20010904/DTD/svg10.dtd">
<svg version="1.0" xmlns="http://www.w3.org/2000/svg"
 width="48.000000pt" height="48.000000pt" viewBox="0 0 48.000000 48.000000"
 preserveAspectRatio="xMidYMid meet">
<metadata>
Created by potrace 1.16, written by Peter Selinger 2001-2019
</metadata>
<g transform="translate(0.000000,48.000000) scale(0.100000,-0.100000)"
fill="#000000" stroke="none">
<path d="M205 350 c3 -5 0 -7 -8 -4 -13 4 -67 -40 -67 -56 0 -3 -14 -5 -30 -2
-36 5 -60 -12 -60 -44 0 -13 -5 -24 -11 -24 -6 0 -9 -12 -7 -27 3 -25 7 -28
44 -30 43 -3 63 10 68 44 2 10 -1 21 -6 24 -5 3 -2 12 7 19 13 11 14 10 9 -5
-5 -13 -4 -16 4 -11 8 4 10 2 6 -8 -4 -11 0 -14 15 -13 13 1 24 10 27 24 7 25
19 30 30 11 5 -7 3 -8 -7 -3 -12 8 -12 6 0 -8 7 -9 18 -17 24 -17 6 0 7 3 4 6
-3 4 -2 14 3 24 8 14 4 17 -20 18 -16 0 -32 -3 -35 -8 -8 -12 -35 -1 -35 15 0
22 40 49 73 48 51 -1 76 -6 74 -18 -1 -5 3 -9 10 -8 9 2 10 -4 4 -20 -5 -12
-14 -21 -20 -19 -15 3 -14 -11 1 -26 9 -9 8 -12 -4 -12 -13 0 -16 7 -13 30 2
17 0 30 -5 30 -8 0 -23 -34 -25 -55 0 -5 -10 -11 -23 -11 -43 -2 -33 -12 16
-15 28 -2 48 -1 45 4 -4 7 65 13 97 8 8 -1 25 -2 38 -2 15 1 21 -3 16 -11 -5
-7 -3 -8 5 -4 9 6 8 12 -4 26 -9 10 -14 24 -10 29 3 6 -1 11 -9 11 -19 0 -30
-17 -16 -25 15 -9 12 -25 -4 -19 -9 3 -13 15 -10 30 4 20 0 24 -19 24 -13 0
-29 -6 -37 -13 -12 -10 -12 -9 -1 5 18 24 5 56 -32 79 -33 20 -113 27 -102 9z"/>
</g>
</svg>
