<?xml version="1.0" standalone="no"?>
<!DOCTYPE svg PUBLIC "-//W3C//DTD SVG 20010904//EN"
 "http://www.w3.org/TR/2001/REC-SVG-20010904/DTD/svg10.dtd">
<svg version="1.0" xmlns="http://www.w3.org/2000/svg"
 width="48.000000pt" height="48.000000pt" viewBox="0 0 48.000000 48.000000"
 preserveAspectRatio="xMidYMid meet">
<metadata>
Created by potrace 1.16, written by Peter Selinger 2001-2019
</metadata>
<g transform="translate(0.000000,48.000000) scale(0.100000,-0.100000)"
fill="#000000" stroke="none">
<path d="M210 433 c-24 -9 -50 -35 -44 -44 3 -5 10 -6 16 -3 6 4 4 -3 -5 -17
-26 -36 -21 -64 18 -98 19 -17 35 -35 35 -41 0 -6 5 -8 10 -5 6 4 24 4 40 0
37 -8 93 -84 87 -118 l-4 -22 -2 23 c0 12 -5 22 -9 22 -13 0 -39 -23 -45 -40
-3 -9 -6 -3 -6 12 -1 31 -30 33 -42 2 -7 -17 -8 -16 -8 6 -1 27 -15 18 -25
-15 -3 -11 -3 -3 0 18 3 20 2 37 -1 37 -7 0 -40 -34 -55 -56 -11 -18 -11 -18
-5 0 3 11 0 23 -7 28 -20 12 -28 10 -28 -9 0 -14 -2 -15 -9 -5 -14 22 -44 9
-52 -21 -7 -27 -6 -28 24 -25 22 2 36 11 45 28 l13 25 -3 -25 c-3 -24 -1 -25
59 -28 52 -3 62 -1 66 15 4 14 5 14 6 2 1 -13 15 -16 84 -15 45 1 81 3 80 6
-1 3 -5 18 -8 33 l-7 28 -24 -22 c-29 -27 -31 -21 -4 11 28 33 25 44 -21 81
-22 17 -52 50 -66 73 -14 23 -37 53 -50 68 -17 18 -25 38 -25 62 0 37 -2 39
-28 29z"/>
</g>
</svg>
